# xmcd
#
# Track frame offsets:
#	150
#	27891
#	50288
#	70650
#	82146
#	113750
#	135347
#	171239
#
# Disc length: 2398 seconds
#
# Revision: 0
# Processed by: cddbd v1.5.2PL0 Copyright (c) Steve Scherf et al.
# Submitted via: EZCDAudioConverter 2.1.7.1
#
DISCID=61095c08
DTITLE=Hampshire and Foat - Galaxys Like Grains Of Sand
DYEAR=1900
DGENRE=
TTITLE0=Galaxies Like Grains Of Sand
TTITLE1=Lullaby
TTITLE2=The Solar Winds (And Cadenza)
TTITLE3=A Long Way Home
TTITLE4=End Song
TTITLE5=All Washed Up
TTITLE6=How The Nights Can Fly
TTITLE7=End Song (Reprise)
EXTD=
EXTT0=
EXTT1=
EXTT2=
EXTT3=
EXTT4=
EXTT5=
EXTT6=
EXTT7=
PLAYORDER=
